name Run_200 02_newCOP3_v24.mot
datacolumns 19
datarows 113
range 4.083333 4.2
DataType=double
version=3
OpenSimVersion=4.3-2021-08-27-4bc7ad9
endheader
time	R_ground_force_vx	R_ground_force_vy	R_ground_force_vz	R_ground_force_px	R_ground_force_py	R_ground_force_pz	L_ground_force_vx	L_ground_force_vy	L_ground_force_vz	L_ground_force_px	L_ground_force_py	L_ground_force_pz	R_ground_torque_x	R_ground_torque_y	R_ground_torque_z	L_ground_torque_x	L_ground_torque_y	L_ground_torque_z
4.083333	-87.08112300000001	1579.609131	-25.114141	0.911835	0	-0.241934	0	0	0	0	0	0	-0	3.378361	-0	0	0	0
4.084375	-85.26263400000001	1577.532593	-25.201132	0.910514	0	-0.241736	0	0	0	0	0	0	-0	3.115186	-0	0	0	0
4.085417	-83.406998	1575.171997	-25.273174	0.909186	0	-0.241537	0	0	0	0	0	0	-0	2.844985	-0	0	0	0
4.086458	-81.51048299999999	1572.526855	-25.338421	0.907851	0	-0.241338	0	0	0	0	0	0	-0	2.574145	-0	0	0	0
4.0875	-79.570465	1569.595947	-25.404745	0.906509	0	-0.241141	0	0	0	0	0	0	-0	2.309036	-0	0	0	0
4.088542	-77.585533	1566.377686	-25.479538	0.905161	0	-0.240946	0	0	0	0	0	0	-0	2.055846	-0	0	0	0
4.089583	-75.555618	1562.870117	-25.569513	0.9038079999999999	0	-0.240756	0	0	0	0	0	0	-0	1.820416	-0	0	0	0
4.090625	-73.48200199999999	1559.071167	-25.68055	0.902451	0	-0.240569	0	0	0	0	0	0	-0	1.608101	-0	0	0	0
4.091667	-71.367332	1554.979004	-25.817532	0.901091	0	-0.240389	0	0	0	0	0	0	-0	1.423627	-0	0	0	0
4.092708	-69.215591	1550.591675	-25.984241	0.89973	0	-0.240215	0	0	0	0	0	0	-0	1.270981	-0	0	0	0
4.09375	-67.031982	1545.907959	-26.18327	0.898369	0	-0.240047	0	0	0	0	0	0	-0	1.153313	-0	0	0	0
4.094792	-64.822762	1540.927246	-26.415951	0.8970089999999999	0	-0.239887	0	0	0	0	0	0	-0	1.072864	-0	0	0	0
4.095833	-62.595043	1535.649536	-26.682356	0.895653	0	-0.239734	0	0	0	0	0	0	-0	1.030917	-0	0	0	0
4.096875	-60.356548	1530.07605	-26.981291	0.894301	0	-0.239588	0	0	0	0	0	0	-0	1.027775	-0	0	0	0
4.097917	-58.115307	1524.208984	-27.310339	0.892954	0	-0.23945	0	0	0	0	0	0	-0	1.06276	-0	0	0	0
4.098958	-55.879379	1518.051636	-27.665937	0.891615	0	-0.239319	0	0	0	0	0	0	-0	1.134245	-0	0	0	0
4.1	-53.656525	1511.608765	-28.043478	0.890284	0	-0.239195	0	0	0	0	0	0	-0	1.239702	-0	0	0	0
4.101042	-51.453953	1504.886597	-28.437424	0.888961	0	-0.239076	0	0	0	0	0	0	-0	1.375776	-0	0	0	0
4.102083	-49.278049	1497.892578	-28.841463	0.887646	0	-0.238963	0	0	0	0	0	0	-0	1.538378	-0	0	0	0
4.103125	-47.13419	1490.635254	-29.248667	0.886341	0	-0.238855	0	0	0	0	0	0	-0	1.722794	-0	0	0	0
4.104167	-45.026608	1483.124512	-29.651667	0.885045	0	-0.23875	0	0	0	0	0	0	-0	1.923812	-0	0	0	0
4.105208	-42.958317	1475.371338	-30.042841	0.883757	0	-0.238649	0	0	0	0	0	0	-0	2.135854	-0	0	0	0
4.10625	-40.931107	1467.387573	-30.414488	0.882476	0	-0.238549	0	0	0	0	0	0	-0	2.353122	-0	0	0	0
4.107292	-38.945625	1459.185425	-30.759026	0.881203	0	-0.23845	0	0	0	0	0	0	-0	2.569735	-0	0	0	0
4.108333	-37.001472	1450.77771	-31.06916	0.8799360000000001	0	-0.238352	0	0	0	0	0	0	-0	2.779881	-0	0	0	0
4.109375	-35.097351	1442.177368	-31.338047	0.878674	0	-0.238254	0	0	0	0	0	0	-0	2.977956	-0	0	0	0
4.110417	-33.231274	1433.396851	-31.559452	0.877417	0	-0.238154	0	0	0	0	0	0	-0	3.158691	-0	0	0	0
4.111458	-31.400702	1424.448853	-31.727879	0.876163	0	-0.238053	0	0	0	0	0	0	-0	3.317278	-0	0	0	0
4.1125	-29.602739	1415.344727	-31.838676	0.874912	0	-0.237949	0	0	0	0	0	0	-0	3.449477	-0	0	0	0
4.113542	-27.834265	1406.095459	-31.888126	0.873663	0	-0.237844	0	0	0	0	0	0	-0	3.551704	-0	0	0	0
4.114583	-26.092033	1396.710815	-31.87351	0.872416	0	-0.237736	0	0	0	0	0	0	-0	3.621106	-0	0	0	0
4.115625	-24.372738	1387.199707	-31.793133	0.871171	0	-0.237626	0	0	0	0	0	0	-0	3.655613	-0	0	0	0
4.116667	-22.673035	1377.56958	-31.646334	0.869926	0	-0.237513	0	0	0	0	0	0	-0	3.653969	-0	0	0	0
4.117708	-20.989527	1367.826904	-31.433474	0.868683	0	-0.237399	0	0	0	0	0	0	-0	3.615747	-0	0	0	0
4.11875	-19.31872	1357.977051	-31.15588	0.86744	0	-0.237284	0	0	0	0	0	0	-0	3.541332	-0	0	0	0
4.119792	-17.656979	1348.02417	-30.815784	0.8661990000000001	0	-0.237168	0	0	0	0	0	0	-0	3.431896	-0	0	0	0
4.120833	-16.000469	1337.971313	-30.416239	0.864958	0	-0.237053	0	0	0	0	0	0	-0	3.28935	-0	0	0	0
4.121875	-14.345126	1327.820923	-29.961004	0.863719	0	-0.236939	0	0	0	0	0	0	-0	3.116272	-0	0	0	0
4.122917	-12.686652	1317.574585	-29.454428	0.86248	0	-0.236827	0	0	0	0	0	0	-0	2.915831	-0	0	0	0
4.123958	-11.020531	1307.233398	-28.901321	0.861242	0	-0.236719	0	0	0	0	0	0	-0	2.691689	-0	0	0	0
4.125	-9.342097000000001	1296.797974	-28.30681	0.860004	0	-0.236615	0	0	0	0	0	0	-0	2.447901	-0	0	0	0
4.126042	-7.646634	1286.268433	-27.676207	0.858766	0	-0.236516	0	0	0	0	0	0	-0	2.188797	-0	0	0	0
4.127083	-5.929492	1275.644897	-27.014853	0.857527	0	-0.236424	0	0	0	0	0	0	-0	1.918875	-0	0	0	0
4.128125	-4.18624	1264.927734	-26.327997	0.856286	0	-0.23634	0	0	0	0	0	0	-0	1.642679	-0	0	0	0
4.129167	-2.412803	1254.116943	-25.620663	0.855042	0	-0.236265	0	0	0	0	0	0	-0	1.364687	-0	0	0	0
4.130208	-0.605614	1243.212891	-24.897526	0.853795	0	-0.236199	0	0	0	0	0	0	-0	1.089202	-0	0	0	0
4.13125	1.238274	1232.216553	-24.162815	0.852542	0	-0.236144	0	0	0	0	0	0	-0	0.8202469999999999	-0	0	0	0
4.132292	3.121093	1221.129028	-23.420227	0.851282	0	-0.2361	0	0	0	0	0	0	-0	0.561478	-0	0	0	0
4.133333	5.044308	1209.951904	-22.672853	0.850015	0	-0.236068	0	0	0	0	0	0	-0	0.316102	-0	0	0	0
4.134375	7.008605	1198.6875	-21.923126	0.848739	0	-0.236048	0	0	0	0	0	0	-0	0.086809	-0	0	0	0
4.135417	9.013909	1187.338867	-21.172802	0.847453	0	-0.23604	0	0	0	0	0	0	0	-0.124274	0	0	0	0
4.136458	11.059452	1175.909424	-20.422941	0.846155	0	-0.236046	0	0	0	0	0	0	0	-0.315623	0	0	0	0
4.1375	13.143839	1164.403687	-19.673918	0.844844	0	-0.236064	0	0	0	0	0	0	0	-0.486328	0	0	0	0
4.138542	15.26515	1152.826538	-18.925459	0.84352	0	-0.236094	0	0	0	0	0	0	0	-0.636104	0	0	0	0
4.139583	17.421034	1141.18335	-18.176685	0.842181	0	-0.236136	0	0	0	0	0	0	0	-0.765267	0	0	0	0
4.140625	19.608784	1129.480469	-17.426174	0.840828	0	-0.236189	0	0	0	0	0	0	0	-0.874709	0	0	0	0
4.141667	21.825417	1117.724243	-16.672041	0.839459	0	-0.236253	0	0	0	0	0	0	0	-0.965854	0	0	0	0
4.142708	24.067701	1105.921387	-15.912033	0.838075	0	-0.236326	0	0	0	0	0	0	0	-1.040599	0	0	0	0
4.14375	26.332184	1094.078613	-15.143615	0.836674	0	-0.236407	0	0	0	0	0	0	0	-1.101249	0	0	0	0
4.144792	28.615177	1082.202759	-14.364082	0.8352579999999999	0	-0.236495	0	0	0	0	0	0	0	-1.150435	0	0	0	0
4.145833	30.912731	1070.299927	-13.57067	0.833827	0	-0.23659	0	0	0	0	0	0	0	-1.191039	0	0	0	0
4.146875	33.2206	1058.375977	-12.760652	0.832381	0	-0.236689	0	0	0	0	0	0	0	-1.226099	0	0	0	0
4.147917	35.534199	1046.436279	-11.931451	0.83092	0	-0.236791	0	0	0	0	0	0	0	-1.258728	0	0	0	0
4.148958	37.848576	1034.485107	-11.080733	0.829446	0	-0.236895	0	0	0	0	0	0	0	-1.292015	0	0	0	0
4.15	40.15839	1022.526123	-10.206503	0.82796	0	-0.237001	0	0	0	0	0	0	0	-1.328951	0	0	0	0
4.151042	42.457943	1010.561951	-9.307178	0.826462	0	-0.237106	0	0	0	0	0	0	0	-1.37234	0	0	0	0
4.152083	44.741199	998.594543	-8.381655	0.824953	0	-0.237209	0	0	0	0	0	0	0	-1.424727	0	0	0	0
4.153125	47.001865	986.624939	-7.429369	0.8234359999999999	0	-0.237311	0	0	0	0	0	0	0	-1.488337	0	0	0	0
4.154167	49.233501	974.653564	-6.450325	0.821912	0	-0.23741	0	0	0	0	0	0	0	-1.565014	0	0	0	0
4.155208	51.42963	962.680298	-5.445122	0.8203819999999999	0	-0.237505	0	0	0	0	0	0	0	-1.656183	0	0	0	0
4.15625	53.583885	950.704712	-4.414959	0.818848	0	-0.237597	0	0	0	0	0	0	0	-1.762816	0	0	0	0
4.157292	55.690144	938.726196	-3.361623	0.817312	0	-0.237685	0	0	0	0	0	0	0	-1.885414	0	0	0	0
4.158333	57.742683	926.744141	-2.287464	0.815774	0	-0.237769	0	0	0	0	0	0	0	-2.024003	0	0	0	0
4.159375	59.736294	914.758057	-1.195355	0.814237	0	-0.237849	0	0	0	0	0	0	0	-2.178135	0	0	0	0
4.160417	61.666378	902.767761	-0.08864	0.812702	0	-0.237926	0	0	0	0	0	0	0	-2.346915	0	0	0	0
4.161458	63.52903	890.773682	1.028934	0.8111699999999999	0	-0.238	0	0	0	0	0	0	0	-2.529026	0	0	0	0
4.1625	65.32106	878.776428	2.153287	0.8096410000000001	0	-0.238072	0	0	0	0	0	0	0	-2.722768	0	0	0	0
4.163542	67.040001	866.777283	3.280092	0.808117	0	-0.238141	0	0	0	0	0	0	0	-2.926113	0	0	0	0
4.164583	68.684074	854.7780760000001	4.404855	0.806598	0	-0.23821	0	0	0	0	0	0	0	-3.136756	0	0	0	0
4.165625	70.252144	842.781067	5.523008	0.8050850000000001	0	-0.238278	0	0	0	0	0	0	0	-3.352179	0	0	0	0
4.166667	71.743629	830.78894	6.629998	0.803576	0	-0.238345	0	0	0	0	0	0	0	-3.569718	0	0	0	0
4.167708	73.158401	818.80481	7.72137	0.802073	0	-0.238414	0	0	0	0	0	0	0	-3.786629	0	0	0	0
4.16875	74.49670399999999	806.8321529999999	8.792854999999999	0.800574	0	-0.238484	0	0	0	0	0	0	0	-4.000158	0	0	0	0
4.169792	75.759056	794.874695	9.840444	0.79908	0	-0.238555	0	0	0	0	0	0	0	-4.207603	0	0	0	0
4.170833	76.946198	782.936462	10.860453	0.797589	0	-0.238629	0	0	0	0	0	0	0	-4.406386	0	0	0	0
4.171875	78.058975	771.021606	11.849586	0.7961009999999999	0	-0.238705	0	0	0	0	0	0	0	-4.594103	0	0	0	0
4.172917	79.09833500000001	759.134338	12.804986	0.794615	0	-0.238785	0	0	0	0	0	0	0	-4.768581	0	0	0	0
4.173958	80.065315	747.279175	13.724259	0.79313	0	-0.238867	0	0	0	0	0	0	0	-4.92792	0	0	0	0
4.175	80.960999	735.460571	14.605512	0.791647	0	-0.238952	0	0	0	0	0	0	0	-5.070534	0	0	0	0
4.176042	81.786545	723.683167	15.447351	0.7901629999999999	0	-0.239039	0	0	0	0	0	0	0	-5.195174	0	0	0	0
4.177083	82.54321299999999	711.9516599999999	16.24889	0.788678	0	-0.23913	0	0	0	0	0	0	0	-5.300948	0	0	0	0
4.178125	83.23239100000001	700.270874	17.009729	0.787191	0	-0.239222	0	0	0	0	0	0	0	-5.387331	0	0	0	0
4.179167	83.855598	688.64563	17.729939	0.785702	0	-0.239316	0	0	0	0	0	0	0	-5.454163	0	0	0	0
4.180208	84.41449	677.080994	18.410011	0.784209	0	-0.23941	0	0	0	0	0	0	0	-5.501637	0	0	0	0
4.18125	84.910881	665.582031	19.050827	0.782711	0	-0.239505	0	0	0	0	0	0	0	-5.530284	0	0	0	0
4.182292	85.346672	654.153809	19.653597	0.781208	0	-0.239599	0	0	0	0	0	0	0	-5.540943	0	0	0	0
4.183333	85.723831	642.801575	20.219807	0.779698	0	-0.23969	0	0	0	0	0	0	0	-5.534727	0	0	0	0
4.184375	86.04431200000001	631.5306399999999	20.75115	0.778181	0	-0.239778	0	0	0	0	0	0	0	-5.512988	0	0	0	0
4.185417	86.30995900000001	620.34613	21.249468	0.776656	0	-0.239861	0	0	0	0	0	0	0	-5.477268	0	0	0	0
4.186458	86.52243	609.2531739999999	21.716681	0.775122	0	-0.239938	0	0	0	0	0	0	0	-5.429255	0	0	0	0
4.1875	86.68306	598.256653	22.154724	0.77358	0	-0.240008	0	0	0	0	0	0	0	-5.370733	0	0	0	0
4.188542	86.792801	587.361328	22.565485	0.772028	0	-0.240068	0	0	0	0	0	0	0	-5.303533	0	0	0	0
4.189583	86.85214999999999	576.5713500000001	22.95075	0.770467	0	-0.240118	0	0	0	0	0	0	0	-5.229481	0	0	0	0
4.190625	86.861053	565.890625	23.312149	0.768898	0	-0.240157	0	0	0	0	0	0	0	-5.150359	0	0	0	0
4.191667	86.81896999999999	555.3222050000001	23.651112	0.7673219999999999	0	-0.240183	0	0	0	0	0	0	0	-5.067855	0	0	0	0
4.192708	86.72479199999999	544.868652	23.96884	0.76574	0	-0.240195	0	0	0	0	0	0	0	-4.983528	0	0	0	0
4.19375	86.577011	534.531555	24.266268	0.764153	0	-0.240192	0	0	0	0	0	0	0	-4.898772	0	0	0	0
4.194792	86.37370300000001	524.311829	24.544056	0.762563	0	-0.240175	0	0	0	0	0	0	0	-4.814794	0	0	0	0
4.195833	86.11274	514.209534	24.802578	0.760973	0	-0.240142	0	0	0	0	0	0	0	-4.732584	0	0	0	0
4.196875	85.79186199999999	504.223724	25.041924	0.7593839999999999	0	-0.240093	0	0	0	0	0	0	0	-4.652913	0	0	0	0
4.197917	85.40889	494.352844	25.261913	0.757799	0	-0.240029	0	0	0	0	0	0	0	-4.576315	0	0	0	0
4.198958	84.961838	484.594574	25.462109	0.756221	0	-0.239949	0	0	0	0	0	0	0	-4.503095	0	0	0	0
4.2	84.449074	474.945953	25.641851	0.754651	0	-0.239855	0	0	0	0	0	0	0	-4.43333	0	0	0	0
